<svg width="24" height="24" viewBox="0 0 24 24" fill="none" xmlns="http://www.w3.org/2000/svg">
<path fill-rule="evenodd" clip-rule="evenodd" d="M19.108 3.37617C19.222 3.35117 19.259 3.38217 19.253 3.48717C19.2517 3.52717 19.2517 3.5675 19.253 3.60817V7.00517C19.251 9.80717 19.2517 12.6092 19.255 15.4112C19.257 16.9112 18.888 18.2912 17.85 19.4462C16.861 20.5482 15.59 21.2032 14.117 21.4742C12.063 21.8522 10.071 21.6872 8.21005 20.6902C7.27205 20.1882 6.56105 19.4622 6.04305 18.5582C5.95505 18.4062 5.92705 18.3382 6.15905 18.2952C6.89447 18.1577 7.62788 18.0097 8.35905 17.8512L8.53605 17.8142C8.64605 17.7902 8.72105 17.7802 8.80005 17.8812C9.36405 18.5992 10.15 18.9522 11.046 19.1002C12.164 19.2842 13.278 19.3002 14.354 18.8982C15.728 18.3842 16.434 17.3772 16.559 15.9882C16.589 15.6472 16.582 15.3022 16.573 14.9632C16.5689 14.8112 16.5666 14.6592 16.566 14.5072L16.38 14.6722L15.942 15.0592C13.9081 16.8562 10.703 16.9142 8.47805 15.6242C4.55105 13.3482 3.82505 8.28817 6.93805 5.04417C9.09305 2.79917 12.838 2.33417 15.372 3.99417C15.806 4.27917 16.181 4.62517 16.581 5.06217V4.74017C16.582 4.49817 16.5831 4.28417 16.5791 4.06917C16.5771 3.95617 16.599 3.89117 16.733 3.86517C17.5257 3.7065 18.3174 3.54417 19.108 3.37617ZM7.70005 9.79217C7.76305 12.2302 9.71005 14.0652 12.18 14.0162C14.747 13.9642 16.632 12.0992 16.577 9.66317C16.523 7.24417 14.577 5.44617 12.062 5.49117C9.56405 5.53617 7.64005 7.43317 7.70005 9.79217Z" fill="white"/>
</svg>
